<svg width="300" height="300" viewBox="0 0 300 300" fill="none" xmlns="http://www.w3.org/2000/svg">
<path d="M240.837 121.565C240.837 121.565 245.303 125.801 245.303 137.276C245.303 144.877 231.364 158.005 229.795 173.197C228.557 185.171 255.84 205.247 245.804 223.089C242.155 229.575 231.466 238.158 219.289 241.05C198.277 246.039 168.26 229.714 149.75 230.573C131.24 229.714 101.223 246.039 80.2112 241.05C68.0341 238.158 57.3448 229.575 53.6964 223.089C43.6604 205.247 70.9425 185.171 69.7054 173.197C68.1356 158.005 54.1967 144.877 54.1967 137.276C54.1967 125.801 57.7934 122 57.7934 122" stroke="black" stroke-linecap="round"/>
<path d="M149.396 42.5C175.376 42.5 198.873 49.7133 215.862 61.3496C232.854 72.9875 243.293 89.0142 243.293 106.655C243.293 124.296 232.854 140.323 215.862 151.961C198.873 163.597 175.376 170.811 149.396 170.811C123.417 170.811 99.9196 163.597 82.9307 151.961C65.9393 140.323 55.5 124.296 55.5 106.655C55.5 89.0142 65.9393 72.9875 82.9307 61.3496C99.9196 49.7133 123.417 42.5 149.396 42.5Z" stroke="black"/>
<path d="M149.955 44.5C174.708 44.5 197.095 51.3732 213.28 62.459C229.468 73.5464 239.41 88.8123 239.41 105.613C239.41 122.414 229.468 137.68 213.28 148.768C197.095 159.853 174.708 166.727 149.955 166.727C125.202 166.727 102.815 159.853 86.6299 148.768C70.4424 137.68 60.5001 122.414 60.5 105.613C60.5 88.8123 70.4424 73.5464 86.6299 62.459C102.815 51.3732 125.202 44.5 149.955 44.5Z" stroke="black"/>
<path d="M149.75 223.034C190.581 223.034 211.243 195.86 211.243 195.86L239.967 123.739" stroke="black" stroke-linecap="round"/>
<path d="M149.75 223.034C108.919 223.034 88.2573 195.86 88.2573 195.86L58.663 123.739" stroke="black" stroke-linecap="round"/>
</svg>
